<svg xmlns="http://www.w3.org/2000/svg" version="1.1" xmlns:xlink="http://www.w3.org/1999/xlink" xmlns:svgjs="http://svgjs.dev/svgjs" width="1000" height="383" viewBox="0 0 1000 383"><g transform="matrix(1,0,0,1,-0.6060496079370523,0.0961757821855258)"><svg viewBox="0 0 396 152" data-background-color="#ed2647" preserveAspectRatio="xMidYMid meet" height="383" width="1000" xmlns="http://www.w3.org/2000/svg" xmlns:xlink="http://www.w3.org/1999/xlink"><g id="tight-bounds" transform="matrix(1,0,0,1,0.23999569978923319,-0.03816897883081083)"><svg viewBox="0 0 395.52 152.07633795766162" height="152.07633795766162" width="395.52"><g><svg viewBox="0 0 637.0471204644887 244.94284280621147" height="152.07633795766162" width="395.52"><g transform="matrix(1,0,0,1,0,33.852447884215906)"><svg viewBox="0 0 395.5199999999999 177.23794703777966" height="177.23794703777966" width="395.5199999999999"><g><svg viewBox="0 0 395.5199999999999 177.23794703777966" height="177.23794703777966" width="395.5199999999999"><g><svg viewBox="0 0 395.5199999999999 120.3102661596958" height="120.3102661596958" width="395.5199999999999"><g transform="matrix(1,0,0,1,0,0)"><svg width="395.5199999999999" viewBox="0.6500000357627869 -38.70000076293945 159.54000854492188 49.25" height="120.3102661596958" data-palette-color="#ffffff"><path d="M12.65-33.9Q10.8-33.9 9.93-33 9.05-32.1 9.05-30.2L9.05-30.2 9.05-26.3 14.95-26.3 14.45-22.9 9.05-22.9 9.05 0 4.55 0 4.55-22.9 0.65-22.9 0.65-26.3 4.55-26.3 4.55-30.15Q4.55-33.45 6.58-35.45 8.6-37.45 12.2-37.45L12.2-37.45Q15.2-37.45 18.1-36L18.1-36 16.75-32.9Q14.7-33.9 12.65-33.9L12.65-33.9ZM19.35-26.3L23.85-26.3 23.85 0 19.35 0 19.35-26.3ZM21.6-38.7Q22.9-38.7 23.72-37.85 24.55-37 24.55-35.75L24.55-35.75Q24.55-34.5 23.75-33.68 22.95-32.85 21.6-32.85L21.6-32.85Q20.3-32.85 19.47-33.68 18.65-34.5 18.65-35.75L18.65-35.75Q18.65-37 19.47-37.85 20.3-38.7 21.6-38.7L21.6-38.7ZM43.7-26.95Q46.84-26.95 48.62-24.88 50.39-22.8 50.39-19.15L50.39-19.15 50.39 0 45.89 0 45.89-18.6Q45.89-21.15 45.05-22.28 44.2-23.4 42.45-23.4L42.45-23.4Q39.14-23.4 36.45-18.7L36.45-18.7 36.45 0 31.95 0 31.95-26.3 35.84-26.3 36.2-22.4Q39.25-26.95 43.7-26.95L43.7-26.95ZM72.49-37.45L76.99-36.95 76.99 0 72.99 0 72.69-3.45Q70.14 0.65 65.84 0.65L65.84 0.65Q61.54 0.65 59.17-3 56.79-6.65 56.79-13.05L56.79-13.05Q56.79-17.2 57.97-20.35 59.14-23.5 61.29-25.23 63.44-26.95 66.24-26.95L66.24-26.95Q69.99-26.95 72.49-23.8L72.49-23.8 72.49-37.45ZM66.89-2.9Q68.69-2.9 70.02-3.9 71.34-4.9 72.49-6.85L72.49-6.85 72.49-20.05Q70.24-23.4 67.24-23.4L67.24-23.4Q64.59-23.4 63.04-20.85 61.49-18.3 61.54-13.15L61.54-13.15Q61.54-7.9 62.94-5.4 64.34-2.9 66.89-2.9L66.89-2.9ZM108.59-26.3L112.84-26.3 107.44 0 101.74 0 97.44-22.2 93.19 0 87.49 0 81.99-26.3 86.44-26.3 90.54-3.4 95.14-26.3 99.99-26.3 104.44-3.35 108.59-26.3ZM134.24-6Q134.24-4.4 134.69-3.63 135.14-2.85 136.09-2.45L136.09-2.45 135.14 0.6Q133.19 0.3 132.09-0.6 130.99-1.5 130.54-3.35L130.54-3.35Q127.99 0.65 123.39 0.65L123.39 0.65Q119.89 0.65 117.84-1.53 115.79-3.7 115.79-7.35L115.79-7.35Q115.79-11.55 118.54-13.75 121.29-15.95 126.39-15.95L126.39-15.95 129.79-15.95 129.79-18.2Q129.79-20.95 128.66-22.18 127.54-23.4 124.99-23.4L124.99-23.4Q122.24-23.4 118.59-22L118.59-22 117.49-25.15Q121.89-26.95 125.69-26.95L125.69-26.95Q134.24-26.95 134.24-18.4L134.24-18.4 134.24-6ZM124.44-2.75Q127.94-2.75 129.79-6.85L129.79-6.85 129.79-13.05 126.89-13.05Q120.39-13.05 120.39-7.6L120.39-7.6Q120.39-5.25 121.44-4 122.49-2.75 124.44-2.75L124.44-2.75ZM160.19-26.3L152.24 0.1Q150.84 4.75 148.29 7.3 145.74 9.85 141.04 10.55L141.04 10.55 140.54 7.2Q142.89 6.7 144.29 5.85 145.69 5 146.54 3.65 147.39 2.3 148.19 0L148.19 0 146.54 0 138.74-26.3 143.39-26.3 149.49-3.15 155.59-26.3 160.19-26.3Z" opacity="1" transform="matrix(1,0,0,1,0,0)" fill="#ffffff" class="undefined-text-0" data-fill-palette-color="primary" id="text-0"></path></svg></g></svg></g><g transform="matrix(1,0,0,1,163.310208,148.71263255361214)"><svg viewBox="0 0 232.20979199999994 28.52531448416751" height="28.52531448416751" width="232.20979199999994"><g transform="matrix(1,0,0,1,0,0)"><svg width="232.20979199999994" viewBox="2.0999999046325684 -40.15999984741211 454.0799865722656 55.790000915527344" height="28.52531448416751" data-palette-color="#ffffff"><path d="M11.38-19.75L20.95-19.75Q24.22-19.75 24.22-22.95L24.22-22.95Q24.22-23.14 24.41-23.14L24.41-23.14 25-23.14Q25.2-23.14 25.2-22.95L25.2-22.95 25.2-13.87Q25.2-13.67 25-13.67L25-13.67 24.41-13.67Q24.22-13.67 24.22-13.87L24.22-13.87Q24.22-16.11 22.95-16.97L22.95-16.97Q22.27-17.43 21-17.43L21-17.43 11.38-17.43Q10.79-17.43 10.79-16.77L10.79-16.77 10.79-4.22Q10.79-2.56 12.78-1.77 14.77-0.98 15.3-0.98 15.82-0.98 15.82-0.78L15.82-0.78 15.82-0.2Q15.82 0 15.63 0L15.63 0 2.29 0Q2.1 0 2.1-0.2L2.1-0.2 2.1-0.78Q2.1-0.98 2.51-0.98 2.93-0.98 3.81-1.37 4.69-1.76 5.36-2.53 6.03-3.3 6.03-4.39L6.03-4.39 6.03-30.76Q6.03-32.35 4.35-33.03L4.35-33.03Q3.37-33.45 2.42-33.45L2.42-33.45 2.32-33.45Q2.12-33.45 2.12-33.64L2.12-33.64 2.12-34.23Q2.12-34.42 2.32-34.42L2.32-34.42 25.34-34.42Q25.63-34.38 25.78-34.29 25.93-34.2 25.93-33.86L25.93-33.86 25.93-27.95Q25.93-27.66 25.84-27.59 25.76-27.51 25.54-27.51L25.54-27.51 25.24-27.51Q25.2-27.54 24.91-28.85 24.63-30.15 24.05-30.86L24.05-30.86Q23.05-31.93 21.78-32.06L21.78-32.06Q21.26-32.1 20.53-32.1L20.53-32.1 11.28-32.1Q10.79-32.1 10.79-31.62L10.79-31.62 10.79-20.31Q10.79-19.75 11.38-19.75L11.38-19.75ZM41.09 0L30.2 0Q29.95-0.05 29.95-0.34L29.95-0.34Q29.95-0.78 31.1-0.93L31.1-0.93Q33.74-1.32 33.74-3.71L33.74-3.71 33.74-16.63Q33.74-17.65 32.61-18.04L32.61-18.04Q32.13-18.21 31.56-18.32 31-18.43 30.67-18.53 30.34-18.63 30.26-18.71 30.17-18.8 30.17-19.08 30.17-19.36 30.54-19.56L30.54-19.56 36.77-22.49Q37.06-22.63 37.13-22.63L37.13-22.63Q37.55-22.63 37.55-22.05L37.55-22.05 37.55-3.71Q37.55-1.32 40.18-0.93L40.18-0.93Q41.33-0.78 41.33-0.42 41.33-0.05 41.09 0L41.09 0ZM35.29-29.49Q34.27-29.49 33.51-30.13 32.74-30.76 32.74-31.9 32.74-33.03 33.47-33.69 34.2-34.35 35.21-34.35 36.23-34.35 36.92-33.57 37.62-32.79 37.62-31.88 37.62-30.98 36.96-30.24 36.3-29.49 35.29-29.49ZM62.18-7.69L62.18-7.69 62.13-12.84Q62.13-15.99 61.59-17.26 61.05-18.53 60.22-19.18 59.39-19.82 57.99-19.82 56.59-19.82 52.05-17.63L52.05-17.63Q51.44-17.26 51.41-16.94L51.41-16.94 51.41-3.81Q51.41-1.34 54.05-0.98L54.05-0.98Q55.2-0.81 55.2-0.43 55.2-0.05 54.95 0L54.95 0 44.06 0Q43.82-0.05 43.82-0.34L43.82-0.34Q43.82-0.81 44.97-0.98L44.97-0.98Q47.6-1.34 47.6-3.81L47.6-3.81 47.6-17.82Q47.6-18.85 46.48-19.24L46.48-19.24Q45.99-19.41 45.43-19.52 44.87-19.63 44.54-19.73 44.21-19.82 44.12-19.91 44.04-20 44.04-20.28 44.04-20.56 44.4-20.75L44.4-20.75 50.63-23.68Q50.92-23.83 51-23.83L51-23.83Q51.41-23.83 51.41-23.24L51.41-23.24 51.41-19.43Q51.48-19.19 51.61-19.19L51.61-19.19Q51.75-19.19 52.66-19.63L52.66-19.63Q54.76-20.68 56.88-21.66 59-22.63 60.4-22.63L60.4-22.63Q66.04-22.63 66.04-12.35L66.04-12.35 65.82-5.22 65.82-3.81Q65.82-1.9 67.72-1.32L67.72-1.32Q68.53-1.05 69.27-0.94 70.01-0.83 70.25-0.73 70.48-0.63 70.48-0.34 70.48-0.05 70.23 0L70.23 0 58.47 0Q58.22-0.05 58.22-0.34L58.22-0.34Q58.22-0.81 59.37-0.98L59.37-0.98Q61.98-1.34 61.98-4L61.98-4Q62.18-5.22 62.18-7.69ZM87.74-21.62Q88.81-21.24 89.06-21.24 89.3-21.24 89.36-21.25 89.42-21.26 89.52-21.56L89.52-21.56 89.52-34.16Q89.52-35.18 88.4-35.57L88.4-35.57Q87.91-35.74 87.35-35.85 86.78-35.96 86.45-36.06 86.13-36.16 86.04-36.24 85.95-36.33 85.95-36.61 85.95-36.89 86.32-37.08L86.32-37.08 92.55-40.01Q92.84-40.16 92.91-40.16L92.91-40.16Q93.33-40.16 93.33-39.58L93.33-39.58 93.33-4.81Q93.45-3.74 93.94-3.27 94.43-2.81 95.52-2.81L95.52-2.81 96.94-2.91Q97.09-2.91 97.09-2.62 97.09-2.34 96.72-2.17L96.72-2.17 90.23 0.51Q89.93 0.66 89.73 0.66 89.52 0.66 89.52 0.05L89.52 0.05 89.52-2.17Q89.52-2.42 89.4-2.42L89.4-2.42Q89.23-2.42 87.37-1.32L87.37-1.32Q81.68 2.05 77.78-0.32L77.78-0.32Q74.65-2.22 73.55-6.35L73.55-6.35Q73.04-8.28 73.04-10.44 73.04-12.6 73.93-14.73 74.82-16.87 76.38-18.48L76.38-18.48Q79.83-22 84.68-22L84.68-22Q86.66-22 87.74-21.62ZM76.73-11.15Q76.73-7.45 78.78-4.68 80.83-1.9 84.49-1.9L84.49-1.9Q86.1-1.9 87.81-2.7 89.52-3.49 89.52-3.91L89.52-3.91 89.52-16.5Q89.52-16.97 88.88-17.6L88.88-17.6Q86.93-20.29 83.7-20.29 80.46-20.29 78.59-17.57 76.73-14.84 76.73-11.15ZM127.28-21.97L136.54-21.97Q136.8-21.9 136.8-21.63 136.8-21.36 136.76-21.28 136.71-21.19 136.52-21.13 136.34-21.07 136.01-21.02 135.68-20.97 134.97-20.84 134.26-20.7 133.7-19.85 133.14-18.99 132.51-17.48L132.51-17.48 121.03 10.96 119.45 14.33Q118.84 15.63 116.88 15.63L116.88 15.63Q116.03 15.63 115.51 15.06 115 14.5 115 13.73 115 12.96 115.38 12.61 115.76 12.26 116.27 12.04 116.78 11.82 117.33 11.63 117.88 11.45 118.57 10.8 119.25 10.16 119.37 9.84L119.37 9.84Q123.47 0.66 123.47 0.24 123.47-0.17 122.99-0.78L122.99-0.78 114.93-17.6Q114.03-20.07 111.83-20.78L111.83-20.78Q111.66-20.83 111.41-20.85L111.41-20.85Q110.39-20.95 110.39-21.46 110.39-21.97 110.97-21.97L110.97-21.97 121.84-21.97Q122.03-21.97 122.03-21.59 122.03-21.22 121.69-21.08 121.35-20.95 120.18-20.95L120.18-20.95Q118.3-20.95 118.3-19.48L118.3-19.48 118.52-18.9 124.84-5.35Q125.33-4.1 125.82-5.42L125.82-5.42Q125.87-5.54 126.43-7.01L126.43-7.01Q129.75-15.43 130.15-16.75 130.55-18.07 130.55-18.73 130.55-19.38 129.86-20.12 129.16-20.85 127.95-20.85 126.75-20.85 126.75-21.56L126.75-21.56Q126.75-21.97 127.28-21.97L127.28-21.97ZM139.24-10.97Q139.24-15.77 142.65-19.23 146.05-22.68 150.82-22.68 155.58-22.68 159.09-19.32 162.61-15.97 162.61-11.04 162.61-6.1 159.27-2.72 155.94 0.66 150.91 0.66 145.88 0.66 142.56-2.76 139.24-6.18 139.24-10.97ZM145.32-4.69L145.32-4.69Q147.71-0.66 151.84-0.66L151.84-0.66Q155.04-0.66 156.74-3.22 158.43-5.79 158.43-9.52 158.43-13.26 156.05-17.19 153.67-21.12 149.64-21.12L149.64-21.12Q146.69-21.12 144.99-18.57 143.3-16.02 143.3-12.1 143.3-8.18 145.32-4.69ZM182.84 0.05L182.84-2.15Q182.72-2.56 182.53-2.43 182.33-2.29 180.94-1.59L180.94-1.59Q176.37 0.68 173.32 0.68 170.27 0.68 168.93-1.27L168.93-1.27Q168.44-2 168.44-3.08L168.44-3.08 168.44-17.97Q168.37-18.68 167.8-19.19L167.8-19.19Q167.05-19.82 166.23-19.87 165.41-19.92 165.41-20.37 165.41-20.83 165.8-20.92L165.8-20.92 171.39-22.53Q171.69-22.63 171.97-22.63 172.25-22.63 172.25-22.22L172.25-22.22 172.25-5.83Q172.25-4.13 173.76-3.2 175.28-2.27 177.63-2.27 179.99-2.27 181.87-3.71L181.87-3.71Q182.45-4.17 182.84-4.74L182.84-4.74 182.84-17.97Q182.77-18.68 182.21-19.19L182.21-19.19Q181.45-19.82 180.63-19.87 179.82-19.92 179.82-20.37 179.82-20.83 180.21-20.92L180.21-20.92 185.8-22.53Q186.09-22.63 186.37-22.63 186.65-22.63 186.65-22.14L186.65-22.14 186.65-4.81Q186.77-3.74 187.26-3.27 187.75-2.81 188.85-2.81L188.85-2.81 190.27-2.91Q190.41-2.91 190.41-2.62 190.41-2.34 190.05-2.17L190.05-2.17 183.55 0.51Q183.26 0.66 183.05 0.66 182.84 0.66 182.84 0.05L182.84 0.05ZM208.43-17.5L208.43-17.5Q208.13-17.55 207.57-17.82L207.57-17.82Q205.55-18.75 204.4-18.75 203.25-18.75 201.99-17.32 200.74-15.89 200.74-14.75L200.74-14.75 200.74-3.71Q200.74-1.88 202.86-1.27L202.86-1.27Q203.79-1.03 204.59-0.92 205.4-0.81 205.63-0.71 205.86-0.61 205.86-0.33 205.86-0.05 205.62 0L205.62 0 193.39 0Q193.14-0.05 193.14-0.34L193.14-0.34Q193.14-0.78 194.29-0.93L194.29-0.93Q196.93-1.32 196.93-3.71L196.93-3.71 196.93-16.63Q196.93-17.65 195.81-18.04L195.81-18.04Q195.32-18.21 194.76-18.32 194.19-18.43 193.86-18.53 193.53-18.63 193.45-18.71 193.36-18.8 193.36-19.08 193.36-19.36 193.73-19.56L193.73-19.56 199.96-22.49Q200.25-22.63 200.32-22.63L200.32-22.63Q200.74-22.63 200.74-22.05L200.74-22.05 200.74-18.09Q200.74-17.8 200.88-17.8L200.88-17.8Q201.08-17.8 201.88-18.95L201.88-18.95Q204.2-22.19 205.72-22.19L205.72-22.19Q206.57-22.19 208.34-21.51 210.11-20.83 210.11-20.36L210.11-20.36Q210.11-19.8 209.55-18.65 208.99-17.5 208.43-17.5ZM232.52-11.69L232.49-11.69Q232.2-11.69 232.2-10.5L232.2-10.5 232.2-3.71Q232.2-1.32 234.84-0.93L234.84-0.93Q235.99-0.78 235.99-0.39 235.99 0 235.74 0L235.74 0 224.85 0Q224.61-0.05 224.61-0.34L224.61-0.34Q224.61-0.78 225.76-0.93L225.76-0.93Q228.39-1.32 228.39-3.71L228.39-3.71 228.39-34.16Q228.39-35.18 227.27-35.57L227.27-35.57Q226.78-35.74 226.22-35.85 225.66-35.96 225.33-36.06 225-36.16 224.91-36.24 224.83-36.33 224.83-36.61 224.83-36.89 225.19-37.08L225.19-37.08 231.42-40.01Q231.71-40.16 231.79-40.16L231.79-40.16Q232.2-40.16 232.2-39.58L232.2-39.58 232.2-15.21Q232.4-14.5 232.71-14.38 233.03-14.26 233.4-14.26L233.4-14.26Q234.11-14.26 235.73-15.37 237.35-16.48 238.67-17.86 239.99-19.24 239.99-19.76 239.99-20.29 239.53-20.42 239.06-20.56 238.49-20.62 237.91-20.68 237.45-20.81 236.99-20.95 236.99-21.46 236.99-21.97 237.99-21.97L237.99-21.97 247.29-21.97Q248.14-21.97 248.14-21.41L248.14-21.41Q248.14-21.12 247.58-20.95 247.02-20.78 245.41-20.42 243.8-20.07 242.85-19.31L242.85-19.31 235.84-13.84Q235.84-13.53 236.3-13.06L236.3-13.06 246.34-2.49Q247.31-1.49 248.34-1.18 249.36-0.88 249.71-0.78 250.05-0.68 250.05-0.44L250.05-0.44Q250.05 0 249.66 0L249.66 0 238.94 0Q238.7 0 238.7-0.29L238.7-0.29Q238.7-0.73 239.31-0.85L239.31-0.85Q241.14-1.2 241.14-2.1L241.14-2.1Q241.14-2.37 240.77-2.81 240.4-3.25 240.09-3.66L240.09-3.66 232.54-11.65Q232.54-11.67 232.52-11.69L232.52-11.69ZM269.92-7.69L269.92-7.69 269.87-12.84Q269.87-15.99 269.33-17.26 268.8-18.53 267.97-19.18 267.14-19.82 265.73-19.82 264.33-19.82 259.79-17.63L259.79-17.63Q259.18-17.26 259.15-16.94L259.15-16.94 259.15-3.81Q259.15-1.34 261.79-0.98L261.79-0.98Q262.94-0.81 262.94-0.43 262.94-0.05 262.69 0L262.69 0 251.8 0Q251.56-0.05 251.56-0.34L251.56-0.34Q251.56-0.81 252.71-0.98L252.71-0.98Q255.34-1.34 255.34-3.81L255.34-3.81 255.34-17.82Q255.34-18.85 254.22-19.24L254.22-19.24Q253.73-19.41 253.17-19.52 252.61-19.63 252.28-19.73 251.95-19.82 251.86-19.91 251.78-20 251.78-20.28 251.78-20.56 252.15-20.75L252.15-20.75 258.37-23.68Q258.66-23.83 258.74-23.83L258.74-23.83Q259.15-23.83 259.15-23.24L259.15-23.24 259.15-19.43Q259.23-19.19 259.35-19.19L259.35-19.19Q259.49-19.19 260.4-19.63L260.4-19.63Q262.5-20.68 264.62-21.66 266.74-22.63 268.14-22.63L268.14-22.63Q273.78-22.63 273.78-12.35L273.78-12.35 273.56-5.22 273.56-3.81Q273.56-1.9 275.46-1.32L275.46-1.32Q276.27-1.05 277.01-0.94 277.76-0.83 277.99-0.73 278.22-0.63 278.22-0.34 278.22-0.05 277.98 0L277.98 0 266.21 0Q265.96-0.05 265.96-0.34L265.96-0.34Q265.96-0.81 267.11-0.98L267.11-0.98Q269.72-1.34 269.72-4L269.72-4Q269.92-5.22 269.92-7.69ZM280.54-10.97Q280.54-15.77 283.94-19.23 287.35-22.68 292.11-22.68 296.87-22.68 300.39-19.32 303.9-15.97 303.9-11.04 303.9-6.1 300.57-2.72 297.24 0.66 292.21 0.66 287.18 0.66 283.86-2.76 280.54-6.18 280.54-10.97ZM286.62-4.69L286.62-4.69Q289.01-0.66 293.13-0.66L293.13-0.66Q296.33-0.66 298.03-3.22 299.73-5.79 299.73-9.52 299.73-13.26 297.35-17.19 294.97-21.12 290.94-21.12L290.94-21.12Q287.98-21.12 286.29-18.57 284.59-16.02 284.59-12.1 284.59-8.18 286.62-4.69ZM335.56-21.97L344.82-21.97Q345.08-21.9 345.08-21.63 345.08-21.36 345.01-21.24 344.94-21.12 343.94-20.97 342.94-20.83 342.51-20.4 342.08-19.97 341.75-19.43 341.42-18.9 341.18-18.32 340.93-17.75 340.71-17.29L340.71-17.29 334.05-0.05Q333.76 0.66 333.51 0.66L333.51 0.66 331.58 0.66Q331.34 0.66 331.05-0.1L331.05-0.1 325.63-14.77 319.94-0.05Q319.65 0.66 319.4 0.66L319.4 0.66 317.47 0.66Q317.23 0.66 316.94-0.1L316.94-0.1 310.47-17.6Q309.56-20.07 307.36-20.78L307.36-20.78Q307.19-20.83 306.95-20.85L306.95-20.85Q305.92-20.95 305.92-21.46 305.92-21.97 306.51-21.97L306.51-21.97 317.37-21.97Q317.57-21.97 317.57-21.59 317.57-21.22 317.3-21.09L317.3-21.09Q316.86-20.92 315.79-20.95L315.79-20.95Q314.01-21 314.01-19.48L314.01-19.48 314.05-18.9 319.01-5.35Q319.5-4.1 319.99-5.42L319.99-5.42Q320.04-5.54 322.03-10.55 324.02-15.55 324.58-17.6L324.58-17.6Q323.67-20.07 321.48-20.78L321.48-20.78Q321.31-20.83 321.06-20.85L321.06-20.85Q320.04-20.95 320.04-21.46 320.04-21.97 320.62-21.97L320.62-21.97 331.49-21.97Q331.68-21.97 331.68-21.59 331.68-21.22 331.41-21.09L331.41-21.09Q330.97-20.92 329.9-20.95L329.9-20.95Q328.12-21 328.12-19.48L328.12-19.48 328.17-18.9 333.12-5.35Q333.61-4.1 334.1-5.42L334.1-5.42Q334.15-5.54 334.73-7.01L334.73-7.01Q337.74-14.53 338.29-16.3 338.83-18.07 338.83-18.73 338.83-19.38 338.13-20.1 337.42-20.83 336.22-20.83 335.03-20.83 335.03-21.56L335.03-21.56Q335.03-21.97 335.56-21.97L335.56-21.97ZM356.53-0.93L356.53-0.93Q357.68-0.78 357.68-0.34L357.68-0.34Q357.68-0.05 357.44 0L357.44 0 346.55 0Q346.3-0.05 346.3-0.34L346.3-0.34Q346.3-0.78 347.45-0.93L347.45-0.93Q350.09-1.32 350.09-3.71L350.09-3.71 350.09-34.16Q350.09-35.18 348.96-35.57L348.96-35.57Q348.48-35.74 347.91-35.85 347.35-35.96 347.02-36.06 346.69-36.16 346.61-36.24 346.52-36.33 346.52-36.61 346.52-36.89 346.89-37.08L346.89-37.08 353.11-40.01Q353.41-40.16 353.48-40.16L353.48-40.16Q353.9-40.16 353.9-39.58L353.9-39.58 353.9-3.71Q353.9-1.32 356.53-0.93ZM378.33-12.87L364.17-12.87Q363.76-12.87 363.76-11.08L363.76-11.08Q363.76-7.3 366-4.74 368.25-2.17 371.58-2.17 374.91-2.17 377.99-5.05L377.99-5.05Q378.04-5.1 378.11-5.1L378.11-5.1 378.23-5.1Q378.38-5.1 378.51-4.87 378.65-4.64 378.77-4.57L378.77-4.57Q375.94-1.12 372.11 0.2L372.11 0.2Q370.79 0.66 369.13 0.66 367.47 0.66 365.76-0.26 364.05-1.17 362.83-2.66L362.83-2.66Q360.24-5.76 360.24-10.39 360.24-15.01 363.06-18.82 365.88-22.63 370.81-22.63L370.81-22.63Q374.35-22.63 376.6-19.47 378.84-16.31 378.84-13.92L378.84-13.92Q378.84-12.87 378.33-12.87L378.33-12.87ZM364.44-15.5L364.44-15.21Q364.44-14.75 364.88-14.75L364.88-14.75 374.08-14.75Q374.72-14.75 374.72-15.5L374.72-15.5Q374.72-17.26 373.14-19.1 371.57-20.95 369.69-20.95L369.69-20.95Q367.86-20.95 366.36-19.29 364.86-17.63 364.44-15.5L364.44-15.5ZM398.01-21.62Q399.08-21.24 399.33-21.24 399.57-21.24 399.63-21.25 399.69-21.26 399.79-21.56L399.79-21.56 399.79-34.16Q399.79-35.18 398.67-35.57L398.67-35.57Q398.18-35.74 397.62-35.85 397.05-35.96 396.73-36.06 396.4-36.16 396.31-36.24 396.22-36.33 396.22-36.61 396.22-36.89 396.59-37.08L396.59-37.08 402.82-40.01Q403.11-40.16 403.18-40.16L403.18-40.16Q403.6-40.16 403.6-39.58L403.6-39.58 403.6-4.81Q403.72-3.74 404.21-3.27 404.7-2.81 405.79-2.81L405.79-2.81 407.21-2.91Q407.36-2.91 407.36-2.62 407.36-2.34 406.99-2.17L406.99-2.17 400.5 0.51Q400.2 0.66 400 0.66 399.79 0.66 399.79 0.05L399.79 0.05 399.79-2.17Q399.79-2.42 399.67-2.42L399.67-2.42Q399.5-2.42 397.64-1.32L397.64-1.32Q391.95 2.05 388.05-0.32L388.05-0.32Q384.92-2.22 383.82-6.35L383.82-6.35Q383.31-8.28 383.31-10.44 383.31-12.6 384.2-14.73 385.09-16.87 386.65-18.48L386.65-18.48Q390.1-22 394.96-22L394.96-22Q396.93-22 398.01-21.62ZM387-11.15Q387-7.45 389.05-4.68 391.1-1.9 394.76-1.9L394.76-1.9Q396.37-1.9 398.08-2.7 399.79-3.49 399.79-3.91L399.79-3.91 399.79-16.5Q399.79-16.97 399.15-17.6L399.15-17.6Q397.2-20.29 393.97-20.29 390.73-20.29 388.86-17.57 387-14.84 387-11.15ZM427.84-20.29L427.84-20.29Q427.84-20.29 434.38-20.58L434.38-20.58Q434.94-20.58 435.11-20.46 435.28-20.34 435.48-19.62 435.68-18.9 435.68-18.26 435.68-17.63 435.55-17.53 435.43-17.43 435.06-17.43L435.06-17.43 429.65-17.43Q429.79-17.16 429.96-16.87 430.13-16.58 430.4-15.89 430.67-15.21 430.67-13.78 430.67-12.35 429.97-10.8 429.28-9.25 427.94-8.06L427.94-8.06Q424.96-5.37 420.22-5.37L420.22-5.37Q418.98-5.37 417.49-5.83L417.49-5.83Q417.12-5.44 416.51-5.11 415.9-4.79 415.31-4.44L415.31-4.44Q413.85-3.61 413.85-2.78L413.85-2.78Q413.85-0.71 420.73-0.66 427.62-0.61 429.78-0.21 431.94 0.2 433.14 1.39L433.14 1.39Q435.02 3.27 435.02 5.69L435.02 5.69Q435.02 7.76 433.23 9.96L433.23 9.96Q430.13 13.84 423.76 15.14L423.76 15.14Q421.49 15.6 418.95 15.6L418.95 15.6Q414.34 15.6 411.94 13.93 409.55 12.26 409.55 9.89L409.55 9.89Q409.55 8.59 410.16 7.75 410.77 6.91 411.71 6.16 412.65 5.42 413.78 4.6 414.9 3.78 415.92 2.51L415.92 2.51Q413.58 2.32 411.91 1.03 410.24-0.27 410.24-1.51 410.24-2.76 410.9-3.36 411.55-3.96 412.51-4.38 413.46-4.81 414.51-5.18 415.56-5.54 416.34-6.13L416.34-6.13Q413.6-7.2 412.12-9.09 410.63-10.99 410.63-13.23L410.63-13.23Q410.63-17.41 413.67-20.04 416.71-22.68 421-22.68 425.3-22.68 427.84-20.29ZM414.57 5.18Q414 5.74 413.63 6.37 413.26 7.01 413.26 7.97 413.26 8.94 413.96 10 414.65 11.06 415.85 11.91L415.85 11.91Q418.49 13.87 422.2 13.87 425.91 13.87 428.92 11.71 431.94 9.55 431.94 6.97 431.94 4.39 429.45 3.52L429.45 3.52Q428.28 3.13 423.42 3.03 418.56 2.93 417.12 2.76L417.12 2.76Q416.49 3.49 415.81 4.05 415.14 4.61 414.57 5.18ZM426.67-13.79Q426.67-17.24 424.95-19.4 423.22-21.56 420.39-21.56L420.39-21.56Q416.73-21.56 415.22-18.12L415.22-18.12Q414.63-16.8 414.63-15.09L414.63-15.09Q414.63-11.6 416.07-9.28L416.07-9.28Q417.83-6.49 420.69-6.49 423.54-6.49 425.1-8.42 426.67-10.35 426.67-13.79ZM455.67-12.87L441.51-12.87Q441.09-12.87 441.09-11.08L441.09-11.08Q441.09-7.3 443.34-4.74 445.58-2.17 448.92-2.17 452.25-2.17 455.33-5.05L455.33-5.05Q455.37-5.1 455.45-5.1L455.45-5.1 455.57-5.1Q455.72-5.1 455.85-4.87 455.99-4.64 456.11-4.57L456.11-4.57Q453.28-1.12 449.44 0.2L449.44 0.2Q448.12 0.66 446.46 0.66 444.8 0.66 443.09-0.26 441.39-1.17 440.16-2.66L440.16-2.66Q437.58-5.76 437.58-10.39 437.58-15.01 440.4-18.82 443.22-22.63 448.15-22.63L448.15-22.63Q451.69-22.63 453.93-19.47 456.18-16.31 456.18-13.92L456.18-13.92Q456.18-12.87 455.67-12.87L455.67-12.87ZM441.78-15.5L441.78-15.21Q441.78-14.75 442.22-14.75L442.22-14.75 451.42-14.75Q452.05-14.75 452.05-15.5L452.05-15.5Q452.05-17.26 450.48-19.1 448.91-20.95 447.03-20.95L447.03-20.95Q445.19-20.95 443.69-19.29 442.19-17.63 441.78-15.5L441.78-15.5Z" opacity="1" transform="matrix(1,0,0,1,0,0)" fill="#ffffff" class="undefined-text-1" data-fill-palette-color="secondary" id="text-1"></path></svg></g></svg></g></svg></g></svg></g><g transform="matrix(1,0,0,1,423.92236639391626,0)"><svg viewBox="0 0 213.1247540705724 244.94284280621147" height="244.94284280621147" width="213.1247540705724"><g><svg xmlns="http://www.w3.org/2000/svg" xmlns:xlink="http://www.w3.org/1999/xlink" version="1.1" x="0" y="0" viewBox="6.607999801635742 0 87.00999450683594 100" enable-background="new 0 0 100 100" xml:space="preserve" height="244.94284280621147" width="213.1247540705724" class="icon-icon-0" data-fill-palette-color="accent" id="icon-0"><path d="M50.171 6.288c11.637 8.013 30.191 11.898 38.101 13.26 0.301 2.772 0.455 5.527 0.455 8.223 0 27.634-14.728 52.93-38.612 66.642C26.229 80.697 11.5 55.402 11.5 27.771c0-2.669 0.154-5.403 0.455-8.17C20.031 18.318 38.946 14.568 50.171 6.288M50.039 0C38.216 11.699 7.588 15.281 7.588 15.281c-0.628 4.078-0.98 8.24-0.98 12.49 0 31.327 17.64 58.512 43.506 72.229 25.87-13.718 43.504-40.902 43.504-72.229 0-4.25-0.346-8.412-0.973-12.49C92.646 15.281 62.822 11.34 50.039 0L50.039 0z" fill="#ffffff" data-fill-palette-color="accent"></path><path d="M20.738 26.015c-0.435 2.824-0.677 5.702-0.677 8.638 0 21.633 12.19 40.407 30.053 49.882 17.864-9.476 30.052-28.249 30.052-49.882 0-2.936-0.247-5.814-0.674-8.638 0 0-20.602-2.719-29.432-10.551C41.892 23.542 20.738 26.015 20.738 26.015z" fill="#ffffff" data-fill-palette-color="accent"></path></svg></g></svg></g></svg></g><defs></defs></svg><rect width="395.52" height="152.07633795766162" fill="none" stroke="none" visibility="hidden"></rect></g></svg></g></svg>